<?xml version="1.0" encoding="utf-8"?>
<!-- Generator: Adobe Illustrator 19.2.0, SVG Export Plug-In . SVG Version: 6.00 Build 0)  -->
<svg version="1.1" id="Layer_1" xmlns="http://www.w3.org/2000/svg" xmlns:xlink="http://www.w3.org/1999/xlink" x="0px" y="0px"
	 viewBox="0 0 255.3 300.5" style="enable-background:new 0 0 255.3 300.5;" xml:space="preserve">
<style type="text/css">
	.st0{fill:#D1D2D3;}
	.st1{fill:#E7E7E7;}
	.st2{fill:#3A4E55;}
	.st3{fill:#06A7D8;}
	.st4{fill:#30B7EA;}
	.st5{fill:#108AB8;}
	.st6{fill:#0399C4;}
	.st7{fill:#D4EDEF;}
	.st8{fill:#BFDADF;}
	.st9{fill:#01AAD0;}
	.st10{fill:#20C3EC;}
	.st11{fill:#33454A;}
	.st12{fill:#3D8EB9;}
	.st13{fill:#FFFFFF;}
</style>
<path class="st0" d="M127.5,104.3v182.9c6.5-3.8,111.1-67.1,101.6-182.6L127.5,104.3z"/>
<path class="st1" d="M127.5,104.3L25.9,104c-0.3,0.9-2.8,134.3,101.3,183.4c0,0,0.1-0.1,0.3-0.2V104.3z"/>
<g>
	<path class="st2" d="M141.7,155.3h11.5v11.8h5.8c2.7,0,5.5-0.5,8-1.3c1.3-0.4,2.7-1,3.9-1.8c-1.6-2.1-2.5-4.8-2.7-7.5
		c-0.3-3.6,0.4-8.3,2.8-11.1l1.2-1.4l1.4,1.2c3.6,2.9,6.7,7,7.2,11.7c4.4-1.3,9.5-1,13.4,1.2l1.6,0.9l-0.8,1.6
		c-3.3,6.4-10.1,8.3-16.8,8c-10,24.9-31.7,36.6-58.1,36.6c-13.6,0-26.1-5.1-33.2-17.2l-0.1-0.2l-1-2.1c-2.4-5.3-3.2-11.1-2.7-17
		l0.2-1.7h9.9v-11.8h11.5v-11.5h23.1v-11.5h13.8V155.3z"/>
	<path class="st3" d="M179.1,159.7c0.8-6-3.7-10.7-6.5-13c-3.2,3.7-3.7,13.4,1.3,17.5c-2.8,2.5-8.7,4.8-14.8,4.8H85.2
		c-0.6,6.3,0.5,12.2,3.1,17.2l0.8,1.5c0.5,0.9,1.1,1.8,1.7,2.6c3,0.2,5.8,0.3,8.4,0.2c5-0.1,9.1-0.7,12.3-1.8c0.5-0.2,1,0.1,1.1,0.5
		c0.2,0.5-0.1,1-0.5,1.1c-0.4,0.1-0.8,0.3-1.3,0.4v0c-2.5,0.7-5.1,1.2-8.5,1.4c0.2,0-0.2,0-0.2,0c-0.1,0-0.3,0-0.4,0
		c-1.3,0.1-2.8,0.1-4.2,0.1c-1.6,0-3.2,0-5-0.1l0,0c6.2,6.9,15.8,11.1,27.8,11.1c25.5,0,47.2-11.3,56.8-36.7
		c6.8,0.7,13.3-1,16.3-6.8C188.7,157,182.6,157.9,179.1,159.7"/>
	<path class="st4" d="M179.1,159.7c0.8-6-3.7-10.7-6.5-13c-3.2,3.7-3.7,13.4,1.3,17.5c-2.8,2.5-8.7,4.8-14.8,4.8H89.6
		c-0.3,9.7,3.3,17.1,9.7,21.5c5-0.1,9.1-0.7,12.3-1.8c0.5-0.2,1,0.1,1.1,0.5c0.2,0.5-0.1,1-0.5,1.1c-0.4,0.1-0.8,0.3-1.3,0.4v0
		c-2.5,0.7-5.3,1.2-8.7,1.4l-0.1-0.1c8.7,4.5,21.3,4.4,35.7-1.1c16.2-6.2,31.3-18.1,41.8-31.6C179.4,159.5,179.2,159.6,179.1,159.7"
		/>
	<path class="st5" d="M85.4,176.7c0.5,3.4,1.5,6.6,2.9,9.5l0.8,1.5c0.5,0.9,1.1,1.8,1.7,2.6c3,0.2,5.8,0.3,8.4,0.2
		c5-0.1,9.1-0.7,12.3-1.8c0.5-0.2,1,0.1,1.1,0.5c0.2,0.5-0.1,1-0.5,1.1c-0.4,0.1-0.8,0.3-1.3,0.4v0c-2.5,0.7-5.3,1.2-8.7,1.4
		c-0.1,0-0.3,0-0.4,0c-1.3,0.1-2.8,0.1-4.2,0.1c-1.6,0-3.3,0-5-0.1c6.2,6.9,15.8,11.1,27.9,11.1c21.9,0,40.9-8.3,51.9-26.6H85.4z"/>
	<path class="st6" d="M90.3,176.7c1.3,6,4.4,10.6,9,13.8c5-0.1,9.1-0.7,12.3-1.8c0.5-0.2,1,0.1,1.1,0.5c0.2,0.5-0.1,1-0.5,1.1
		c-0.4,0.1-0.8,0.3-1.3,0.4v0c-2.5,0.7-5.4,1.2-8.7,1.4c8.7,4.5,21.3,4.4,35.7-1.2c8.7-3.4,17.2-8.4,24.7-14.4H90.3z"/>
	<path class="st7" d="M116.2,183.4c1.5,0,2.8,1.2,2.8,2.8c0,1.5-1.2,2.8-2.8,2.8c-1.5,0-2.8-1.2-2.8-2.8
		C113.5,184.7,114.7,183.4,116.2,183.4"/>
	<path class="st2" d="M116.2,184.2c0.3,0,0.5,0,0.7,0.1c-0.2,0.1-0.4,0.4-0.4,0.7c0,0.4,0.4,0.8,0.8,0.8c0.3,0,0.6-0.2,0.7-0.4
		c0.1,0.2,0.1,0.5,0.1,0.8c0,1.1-0.9,2-2,2c-1.1,0-2-0.9-2-2C114.3,185.1,115.1,184.2,116.2,184.2"/>
	<path class="st2" d="M66.9,177.7h60.4h7.5h60.4c-2.8-0.7-8.8-1.7-7.8-5.3c-5.1,5.9-17.3,4.1-20.4,1.2c-3.4,5-23.5,3.1-24.9-0.8
		c-4.3,5.1-17.7,5.1-22,0c-1.4,3.9-21.4,5.8-24.9,0.8c-3.1,2.9-15.3,4.7-20.4-1.2C75.7,176.1,69.7,177,66.9,177.7"/>
	<path class="st8" d="M123.6,203.3c-6.8-3.2-10.6-7.6-12.7-12.4c-2.5,0.7-5.6,1.2-9.1,1.4c-1.3,0.1-2.7,0.1-4.2,0.1
		c-1.7,0-3.5-0.1-5.4-0.2c6.3,6.3,14,11.1,28.2,11.2C121.5,203.4,122.5,203.3,123.6,203.3"/>
	<path class="st7" d="M113.4,195.3c-0.9-1.3-1.9-2.9-2.5-4.4c-2.5,0.7-5.6,1.2-9.1,1.4C104.2,193.6,107.7,194.8,113.4,195.3"/>
	<path class="st9" d="M95.2,157.1h10v10h-10V157.1z M96,157.9h0.8v8.3H96V157.9z M97.5,157.9h0.8v8.3h-0.8V157.9z M99,157.9h0.8v8.3
		H99V157.9z M100.5,157.9h0.8v8.3h-0.8V157.9z M102,157.9h0.8v8.3H102V157.9z M103.5,157.9h0.8v8.3h-0.8V157.9z"/>
	<path class="st9" d="M106.7,145.5h10v10h-10V145.5z M107.5,146.4h0.8v8.3h-0.8V146.4z M109,146.4h0.8v8.3H109V146.4z M110.5,146.4
		h0.8v8.3h-0.8V146.4z M112,146.4h0.8v8.3H112V146.4z M113.6,146.4h0.8v8.3h-0.8V146.4z M115.1,146.4h0.8v8.3h-0.8V146.4z"/>
	<path class="st10" d="M106.7,157.1h10v10h-10V157.1z M107.5,157.9h0.8v8.3h-0.8V157.9z M109,157.9h0.8v8.3H109V157.9z M110.5,157.9
		h0.8v8.3h-0.8V157.9z M112,157.9h0.8v8.3H112V157.9z M113.6,157.9h0.8v8.3h-0.8V157.9z M115.1,157.9h0.8v8.3h-0.8V157.9z"/>
	<path class="st9" d="M118.2,157.1h10v10h-10V157.1z M119.1,157.9h0.8v8.3h-0.8V157.9z M120.5,157.9h0.8v8.3h-0.8V157.9z
		 M122.1,157.9h0.8v8.3h-0.8V157.9z M123.6,157.9h0.8v8.3h-0.8V157.9z M125.1,157.9h0.8v8.3h-0.8V157.9z M126.6,157.9h0.8v8.3h-0.8
		V157.9z"/>
	<path class="st10" d="M118.2,145.5h10v10h-10V145.5z M119.1,146.4h0.8v8.3h-0.8V146.4z M120.5,146.4h0.8v8.3h-0.8V146.4z
		 M122.1,146.4h0.8v8.3h-0.8V146.4z M123.6,146.4h0.8v8.3h-0.8V146.4z M125.1,146.4h0.8v8.3h-0.8V146.4z M126.6,146.4h0.8v8.3h-0.8
		V146.4z"/>
	<path class="st10" d="M129.8,157.1h10v10h-10V157.1z M130.6,157.9h0.8v8.3h-0.8V157.9z M132.1,157.9h0.8v8.3h-0.8V157.9z
		 M133.6,157.9h0.8v8.3h-0.8V157.9z M135.1,157.9h0.8v8.3h-0.8V157.9z M136.6,157.9h0.8v8.3h-0.8V157.9z M138.1,157.9h0.8v8.3h-0.8
		V157.9z"/>
	<path class="st9" d="M129.8,145.5h10v10h-10V145.5z M130.6,146.4h0.8v8.3h-0.8V146.4z M132.1,146.4h0.8v8.3h-0.8V146.4z
		 M133.6,146.4h0.8v8.3h-0.8V146.4z M135.1,146.4h0.8v8.3h-0.8V146.4z M136.6,146.4h0.8v8.3h-0.8V146.4z M138.1,146.4h0.8v8.3h-0.8
		V146.4z"/>
	<path class="st9" d="M141.3,157.1h10v10h-10V157.1z M142.1,157.9h0.8v8.3h-0.8V157.9z M143.6,157.9h0.8v8.3h-0.8V157.9z
		 M145.1,157.9h0.8v8.3h-0.8V157.9z M146.6,157.9h0.8v8.3h-0.8V157.9z M148.1,157.9h0.8v8.3h-0.8V157.9z M149.7,157.9h0.8v8.3h-0.8
		V157.9z"/>
</g>
<path class="st11" d="M232.2,99.7l-1.3,0.2c-0.2,0-24.3,3.3-59.5-9.8c-36.1-13.2-42.8-26.4-42.8-26.5l-1.1-2.3v45.8H223
	c-0.7,0-1.5-0.1-2.3-0.1c1.5-0.1,2.7-0.1,3.5-0.2c0,0.1,0,0.2,0,0.3H223c0.4,0,0.8,0,1.2,0c0.7,8.5,2.9,52.6-24.5,102.2
	c-28.4,51.6-67.2,71.2-72.2,73.5v9.1l0.4-0.2c0.5-0.2,11.6-5.1,26.9-17.3c14.1-11.3,34.5-31.2,51.5-62
	c32.5-59.1,26.1-111,26.1-111.5L232.2,99.7z"/>
<path class="st2" d="M127.5,282.9C127.5,282.9,127.4,282.9,127.5,282.9c-4.8-2.1-44-21.4-72.4-73.3C27.8,159.5,30,115.1,30.7,107.2
	c0.5,0,1.1,0,1.6,0c2.2,0.1,5.7,0.2,10.4,0h84.8V61.3l-0.1-0.1l-1.2,2.4c-0.1,0.1-6.7,13.4-42.8,26.8c-35.2,12.8-59.3,9.8-59.6,9.8
	l-1.3-0.2l-0.2,1.3c-0.1,0.5-6.2,52.4,26.1,111.5c16.9,30.9,37.3,50.7,51.4,61.9c15.3,12.2,26.5,17,27,17.2l0.5,0.2l0.1,0V282.9z
	 M30.7,107.1c0.3,0,0.7,0.1,1.1,0.1L30.7,107.1C30.7,107.1,30.7,107.1,30.7,107.1z"/>
<polygon class="st10" points="224.3,30.7 249,30.7 238.5,49.3 249,67.4 208.3,67.4 208.3,30.7 "/>
<polygon class="st10" points="33.5,67.4 8.8,67.4 19.3,48.7 8.8,30.7 49.4,30.7 49.4,67.4 "/>
<rect x="33.6" y="11.2" class="st10" width="190.6" height="38.1"/>
<polygon class="st12" points="33.6,49.3 49.5,67.4 49.5,49.3 "/>
<polygon class="st12" points="224.3,49.3 208.3,67.4 208.3,49.3 "/>
<g>
	<path class="st13" d="M57.5,24.3c0.7,0,1.4,0.1,2,0.3c0.6,0.2,1.2,0.6,1.6,1c0.5,0.5,0.8,1,1.1,1.7c0.3,0.7,0.4,1.5,0.4,2.5
		c0,0.8-0.1,1.6-0.3,2.3c-0.2,0.7-0.5,1.3-1,1.8s-1,0.9-1.6,1.2c-0.6,0.3-1.4,0.4-2.3,0.4h-4.9V24.3H57.5z M57.3,33.5
		c0.4,0,0.7-0.1,1-0.2c0.3-0.1,0.6-0.3,0.9-0.6s0.5-0.6,0.6-1.1c0.2-0.4,0.2-1,0.2-1.6c0-0.6-0.1-1.1-0.2-1.5
		c-0.1-0.5-0.3-0.9-0.5-1.2c-0.3-0.3-0.6-0.6-1-0.8c-0.4-0.2-0.9-0.3-1.5-0.3h-1.8v7.1H57.3z"/>
	<path class="st13" d="M64.2,27.6c0.3-0.7,0.6-1.4,1.1-1.9c0.5-0.5,1.1-1,1.8-1.3c0.7-0.3,1.5-0.5,2.3-0.5c0.9,0,1.7,0.2,2.3,0.5
		c0.7,0.3,1.3,0.7,1.7,1.3c0.5,0.5,0.8,1.2,1.1,1.9c0.3,0.7,0.4,1.5,0.4,2.4c0,0.8-0.1,1.6-0.4,2.3c-0.3,0.7-0.6,1.3-1.1,1.9
		c-0.5,0.5-1.1,0.9-1.7,1.2s-1.5,0.5-2.3,0.5c-0.9,0-1.6-0.2-2.3-0.5s-1.3-0.7-1.8-1.2c-0.5-0.5-0.8-1.1-1.1-1.9
		c-0.3-0.7-0.4-1.5-0.4-2.3C63.9,29.1,64,28.4,64.2,27.6z M66.5,31.4c0.1,0.4,0.3,0.9,0.5,1.2c0.2,0.4,0.6,0.6,1,0.9
		s0.9,0.3,1.4,0.3c0.6,0,1-0.1,1.4-0.3c0.4-0.2,0.7-0.5,1-0.9s0.4-0.8,0.5-1.2c0.1-0.4,0.2-0.9,0.2-1.4c0-0.5-0.1-1-0.2-1.4
		c-0.1-0.5-0.3-0.9-0.5-1.2s-0.6-0.7-1-0.9c-0.4-0.2-0.9-0.3-1.4-0.3c-0.6,0-1,0.1-1.4,0.3c-0.4,0.2-0.7,0.5-1,0.9
		c-0.2,0.4-0.4,0.8-0.5,1.2c-0.1,0.5-0.2,0.9-0.2,1.4C66.4,30.5,66.4,30.9,66.5,31.4z"/>
	<path class="st13" d="M84,27.3c-0.1-0.2-0.3-0.4-0.6-0.6c-0.2-0.2-0.5-0.3-0.8-0.4s-0.6-0.2-0.9-0.2c-0.6,0-1,0.1-1.4,0.3
		c-0.4,0.2-0.7,0.5-1,0.9c-0.2,0.4-0.4,0.8-0.5,1.2c-0.1,0.5-0.2,0.9-0.2,1.4c0,0.5,0.1,0.9,0.2,1.4c0.1,0.4,0.3,0.9,0.5,1.2
		c0.2,0.4,0.6,0.6,1,0.9s0.9,0.3,1.4,0.3c0.8,0,1.4-0.2,1.8-0.7c0.4-0.5,0.7-1.1,0.8-1.8h2.4c-0.1,0.7-0.2,1.3-0.5,1.9
		s-0.6,1.1-1,1.5c-0.4,0.4-0.9,0.7-1.5,0.9s-1.2,0.3-1.9,0.3c-0.9,0-1.6-0.2-2.3-0.5s-1.3-0.7-1.8-1.2c-0.5-0.5-0.8-1.1-1.1-1.9
		c-0.3-0.7-0.4-1.5-0.4-2.3c0-0.8,0.1-1.6,0.4-2.4c0.3-0.7,0.6-1.4,1.1-1.9c0.5-0.5,1.1-1,1.8-1.3c0.7-0.3,1.5-0.5,2.3-0.5
		c0.6,0,1.2,0.1,1.8,0.3c0.6,0.2,1.1,0.4,1.5,0.8c0.4,0.3,0.8,0.8,1.1,1.3c0.3,0.5,0.5,1.1,0.5,1.7h-2.4
		C84.2,27.8,84.1,27.5,84,27.3z"/>
	<path class="st13" d="M90.9,24.3V29l4.4-4.7h3.1L94,28.8l4.9,6.9h-3.1l-3.4-5.1L90.9,32v3.6h-2.5V24.3H90.9z"/>
	<path class="st13" d="M108.4,24.3v2.1h-6v2.4h5.5v1.9h-5.5v2.8h6.1v2.1h-8.6V24.3H108.4z"/>
	<path class="st13" d="M116.3,24.3c0.5,0,1,0.1,1.4,0.2c0.4,0.2,0.8,0.4,1,0.7c0.3,0.3,0.5,0.6,0.7,1c0.2,0.4,0.2,0.8,0.2,1.2
		c0,0.7-0.1,1.2-0.4,1.7c-0.3,0.5-0.7,0.9-1.4,1.1v0c0.3,0.1,0.6,0.2,0.8,0.4s0.4,0.4,0.5,0.6c0.1,0.2,0.2,0.5,0.3,0.8
		c0.1,0.3,0.1,0.6,0.1,0.9c0,0.2,0,0.4,0,0.6c0,0.2,0,0.5,0.1,0.7s0.1,0.5,0.1,0.7c0.1,0.2,0.1,0.4,0.3,0.6h-2.5
		c-0.1-0.4-0.2-0.8-0.3-1.3c0-0.5-0.1-1-0.1-1.4c-0.1-0.6-0.3-1-0.5-1.3s-0.7-0.4-1.3-0.4h-2.5v4.4h-2.5V24.3H116.3z M115.4,29.4
		c0.6,0,1-0.1,1.3-0.4c0.3-0.3,0.4-0.7,0.4-1.2c0-0.5-0.1-0.9-0.4-1.2c-0.3-0.2-0.7-0.4-1.3-0.4h-2.7v3.2H115.4z"/>
	<path class="st13" d="M127.9,32.8c0.1,0.3,0.3,0.5,0.5,0.6s0.5,0.3,0.8,0.4c0.3,0.1,0.6,0.1,1,0.1c0.2,0,0.5,0,0.7-0.1
		c0.3,0,0.5-0.1,0.7-0.2c0.2-0.1,0.4-0.3,0.6-0.4s0.2-0.4,0.2-0.7c0-0.3-0.1-0.6-0.3-0.7c-0.2-0.2-0.5-0.3-0.8-0.5
		c-0.3-0.1-0.7-0.2-1.1-0.3c-0.4-0.1-0.8-0.2-1.2-0.3c-0.4-0.1-0.8-0.2-1.2-0.4c-0.4-0.2-0.8-0.4-1.1-0.6c-0.3-0.2-0.6-0.5-0.8-0.9
		c-0.2-0.4-0.3-0.8-0.3-1.3c0-0.6,0.1-1.1,0.4-1.5c0.2-0.4,0.6-0.8,1-1.1c0.4-0.3,0.9-0.5,1.4-0.6c0.5-0.1,1-0.2,1.5-0.2
		c0.6,0,1.2,0.1,1.7,0.2c0.5,0.1,1,0.3,1.5,0.6s0.8,0.7,1,1.1s0.4,1,0.4,1.7h-2.4c0-0.3-0.1-0.6-0.2-0.8c-0.1-0.2-0.3-0.4-0.5-0.5
		s-0.4-0.2-0.7-0.3c-0.3-0.1-0.5-0.1-0.8-0.1c-0.2,0-0.4,0-0.6,0.1c-0.2,0-0.4,0.1-0.5,0.2c-0.2,0.1-0.3,0.2-0.4,0.4
		c-0.1,0.2-0.2,0.4-0.2,0.6c0,0.2,0,0.4,0.1,0.5c0.1,0.1,0.3,0.3,0.5,0.4c0.2,0.1,0.6,0.2,1,0.3c0.4,0.1,1,0.3,1.7,0.4
		c0.2,0,0.5,0.1,0.9,0.2c0.4,0.1,0.7,0.3,1.1,0.5c0.4,0.2,0.7,0.6,1,1c0.3,0.4,0.4,0.9,0.4,1.6c0,0.5-0.1,1-0.3,1.4
		c-0.2,0.4-0.5,0.8-0.9,1.1c-0.4,0.3-0.9,0.6-1.5,0.8c-0.6,0.2-1.3,0.3-2,0.3c-0.6,0-1.2-0.1-1.8-0.2c-0.6-0.2-1.1-0.4-1.6-0.7
		c-0.4-0.3-0.8-0.7-1.1-1.3c-0.3-0.5-0.4-1.1-0.4-1.8h2.4C127.7,32.2,127.8,32.5,127.9,32.8z"/>
	<path class="st13" d="M144.8,24.3v2.1h-6v2.4h5.5v1.9h-5.5v2.8h6.1v2.1h-8.6V24.3H144.8z"/>
	<path class="st13" d="M153.9,27.3c-0.1-0.2-0.3-0.4-0.6-0.6c-0.2-0.2-0.5-0.3-0.8-0.4s-0.6-0.2-0.9-0.2c-0.6,0-1,0.1-1.4,0.3
		c-0.4,0.2-0.7,0.5-1,0.9c-0.2,0.4-0.4,0.8-0.5,1.2c-0.1,0.5-0.2,0.9-0.2,1.4c0,0.5,0.1,0.9,0.2,1.4c0.1,0.4,0.3,0.9,0.5,1.2
		c0.2,0.4,0.6,0.6,1,0.9s0.9,0.3,1.4,0.3c0.8,0,1.4-0.2,1.8-0.7c0.4-0.5,0.7-1.1,0.8-1.8h2.4c-0.1,0.7-0.2,1.3-0.5,1.9
		s-0.6,1.1-1,1.5c-0.4,0.4-0.9,0.7-1.5,0.9s-1.2,0.3-1.9,0.3c-0.9,0-1.6-0.2-2.3-0.5s-1.3-0.7-1.8-1.2c-0.5-0.5-0.8-1.1-1.1-1.9
		c-0.3-0.7-0.4-1.5-0.4-2.3c0-0.8,0.1-1.6,0.4-2.4c0.3-0.7,0.6-1.4,1.1-1.9c0.5-0.5,1.1-1,1.8-1.3c0.7-0.3,1.5-0.5,2.3-0.5
		c0.6,0,1.2,0.1,1.8,0.3c0.6,0.2,1.1,0.4,1.5,0.8c0.4,0.3,0.8,0.8,1.1,1.3c0.3,0.5,0.5,1.1,0.5,1.7h-2.4
		C154.1,27.8,154,27.5,153.9,27.3z"/>
	<path class="st13" d="M166.7,34.7c-0.9,0.7-2,1.1-3.6,1.1c-1.5,0-2.7-0.4-3.6-1.1c-0.8-0.7-1.3-1.9-1.3-3.4v-7h2.5v7
		c0,0.3,0,0.6,0.1,0.9c0.1,0.3,0.2,0.6,0.3,0.8c0.2,0.2,0.4,0.4,0.7,0.6c0.3,0.1,0.7,0.2,1.2,0.2c0.9,0,1.5-0.2,1.8-0.6
		c0.3-0.4,0.5-1,0.5-1.9v-7h2.5v7C168,32.9,167.5,34,166.7,34.7z"/>
	<path class="st13" d="M176.2,24.3c0.5,0,1,0.1,1.4,0.2c0.4,0.2,0.8,0.4,1,0.7c0.3,0.3,0.5,0.6,0.7,1c0.2,0.4,0.2,0.8,0.2,1.2
		c0,0.7-0.1,1.2-0.4,1.7c-0.3,0.5-0.7,0.9-1.4,1.1v0c0.3,0.1,0.6,0.2,0.8,0.4s0.4,0.4,0.5,0.6c0.1,0.2,0.2,0.5,0.3,0.8
		c0.1,0.3,0.1,0.6,0.1,0.9c0,0.2,0,0.4,0,0.6c0,0.2,0,0.5,0.1,0.7s0.1,0.5,0.1,0.7c0.1,0.2,0.1,0.4,0.3,0.6h-2.5
		c-0.1-0.4-0.2-0.8-0.3-1.3c0-0.5-0.1-1-0.1-1.4c-0.1-0.6-0.3-1-0.5-1.3s-0.7-0.4-1.3-0.4h-2.5v4.4h-2.5V24.3H176.2z M175.3,29.4
		c0.6,0,1-0.1,1.3-0.4c0.3-0.3,0.4-0.7,0.4-1.2c0-0.5-0.1-0.9-0.4-1.2c-0.3-0.2-0.7-0.4-1.3-0.4h-2.7v3.2H175.3z"/>
	<path class="st13" d="M184,24.3v11.3h-2.5V24.3H184z"/>
	<path class="st13" d="M185.3,26.4v-2.1h9.3v2.1h-3.4v9.2h-2.5v-9.2H185.3z"/>
	<path class="st13" d="M194.7,24.3h2.8l2.6,4.5l2.6-4.5h2.8l-4.2,7v4.3h-2.5v-4.4L194.7,24.3z"/>
</g>
</svg>
